<?xml version="1.0" standalone="no"?>
<!DOCTYPE svg PUBLIC "-//W3C//DTD SVG 20010904//EN"
 "http://www.w3.org/TR/2001/REC-SVG-20010904/DTD/svg10.dtd">
<svg version="1.0" xmlns="http://www.w3.org/2000/svg"
 width="27.000000pt" height="27.000000pt" viewBox="0 0 27.000000 27.000000"
 preserveAspectRatio="xMidYMid meet">

<g transform="translate(0.000000,27.000000) scale(0.100000,-0.100000)"
fill="#000000" stroke="none">
<path d="M46 234 c-18 -18 -21 -50 -6 -59 7 -4 1 -16 -15 -30 -21 -20 -36 -65
-21 -65 2 0 13 -3 23 -6 17 -5 17 -5 1 6 -42 26 -3 70 52 59 19 -3 28 -7 19
-8 -19 -1 -49 -42 -49 -65 0 -16 38 -42 47 -33 2 3 -5 8 -16 12 -25 8 -27 37
-5 56 22 18 95 18 117 0 24 -20 21 -46 -5 -59 -13 -6 -18 -11 -12 -11 5 -1 19
5 29 13 16 12 18 19 10 42 -6 16 -22 34 -35 41 -27 14 -26 14 19 16 52 1 80
-40 44 -63 -17 -11 -17 -11 0 -6 10 3 21 6 23 6 13 0 1 43 -18 63 -13 12 -22
25 -20 30 1 4 -7 2 -18 -5 -24 -15 -27 -12 -32 32 -2 29 0 35 17 35 11 0 25
-11 32 -25 9 -17 13 -20 13 -8 0 32 -50 63 -64 40 -6 -10 -72 -9 -82 1 -12 12
-32 8 -48 -9z m49 -39 c0 -34 -3 -40 -22 -40 -12 0 -21 2 -20 5 0 3 -3 15 -7
28 -9 27 9 54 33 50 11 -2 16 -15 16 -43z m59 29 c20 -8 21 -62 2 -86 -12 -16
-14 -16 -34 3 -24 22 -29 58 -10 77 14 14 20 14 42 6z"/>
<path d="M123 23 c9 -2 23 -2 30 0 6 3 -1 5 -18 5 -16 0 -22 -2 -12 -5z"/>
</g>
</svg>
