<svg width="27" height="27" viewBox="0 0 27 27" fill="none" xmlns="http://www.w3.org/2000/svg">
<path d="M8.599 8.24292C8.599 9.57008 9.11789 11.1018 9.98699 12.3404C10.9736 13.7464 12.2212 14.5207 13.4998 14.5207C14.7784 14.5207 16.026 13.7464 17.0126 12.3403C17.8817 11.1018 18.4006 9.57002 18.4006 8.24292C18.4006 5.5406 16.2022 3.34213 13.4998 3.34213C10.7975 3.34213 8.599 5.5406 8.599 8.24292ZM13.4998 4.19324C15.7328 4.19324 17.5495 6.00995 17.5495 8.24292C17.5495 9.38442 17.0769 10.7671 16.316 11.8515C15.5052 13.007 14.4787 13.6696 13.4998 13.6696C12.521 13.6696 11.4945 13.007 10.6837 11.8515C9.92281 10.7672 9.45011 9.38448 9.45011 8.24292C9.45011 6.0099 11.2668 4.19324 13.4998 4.19324Z" fill="black"/>
<path d="M17.1567 13.5705C16.9943 13.4931 16.8008 13.5263 16.6733 13.6534C15.7214 14.6025 14.624 15.1042 13.4995 15.1042C12.3748 15.1042 11.2776 14.6025 10.3264 13.6535C10.199 13.5263 10.0053 13.4931 9.84291 13.5705C8.40999 14.2526 7.19722 15.3197 6.33572 16.6565C5.4508 18.0296 4.98303 19.6227 4.98303 21.2635V21.2704C4.98303 21.3904 5.03376 21.5049 5.12267 21.5856C7.42021 23.6692 10.3951 24.8167 13.4994 24.8167C16.6038 24.8167 19.5787 23.6692 21.8761 21.5856C21.9651 21.5049 22.0158 21.3905 22.0158 21.2704V21.2635C22.0158 19.6227 21.5482 18.0296 20.6635 16.6565C19.8022 15.3197 18.5896 14.2525 17.1567 13.5705ZM13.4995 23.9656C10.6704 23.9656 7.95686 22.943 5.83635 21.0817C5.86943 19.669 6.28778 18.3022 7.05122 17.1175C7.77415 15.9957 8.77171 15.0849 9.94828 14.4691C11.0119 15.4426 12.2341 15.9553 13.4995 15.9553C14.7649 15.9553 15.9872 15.4426 17.0514 14.4691C18.2278 15.0849 19.2253 15.9957 19.9482 17.1175C20.7114 18.3021 21.1297 19.669 21.1627 21.0817C19.0422 22.943 16.3286 23.9656 13.4995 23.9656Z" fill="black"/>
<path d="M25.8212 13.8384C25.0705 12.6734 24.0137 11.7434 22.765 11.149C22.6026 11.0717 22.4089 11.1049 22.2815 11.2319C21.4695 12.0416 20.5345 12.4697 19.5776 12.4697C19.0589 12.4697 18.5459 12.3446 18.0528 12.0979C17.8426 11.9927 17.5871 12.0778 17.4819 12.288C17.3767 12.4982 17.4618 12.7538 17.672 12.859C18.2844 13.1654 18.9256 13.3208 19.5777 13.3208C20.6748 13.3208 21.734 12.8818 22.658 12.0477C23.6512 12.5753 24.4934 13.349 25.1058 14.2995C25.7552 15.3073 26.1133 16.4694 26.1463 17.6707C25.0953 18.5876 23.8454 19.285 22.5201 19.6926C22.2954 19.7617 22.1693 19.9999 22.2384 20.2245C22.2947 20.4075 22.4631 20.5251 22.645 20.5251C22.6864 20.5251 22.7286 20.519 22.7703 20.5062C24.2744 20.0435 25.6887 19.2374 26.8603 18.1748C26.9492 18.0941 26.9999 17.9797 26.9999 17.8596V17.8536C26.9999 16.4235 26.5923 15.0351 25.8212 13.8384Z" fill="black"/>
<path d="M7.40428 11.9423C7.85423 11.9423 8.3031 11.8326 8.73858 11.6162C8.94904 11.5116 9.03488 11.2562 8.93031 11.0457C8.82574 10.8352 8.57029 10.7494 8.35984 10.854C8.04312 11.0114 7.72163 11.0912 7.40428 11.0912C6.57921 11.0912 5.71137 10.5287 5.02322 9.54784C4.3736 8.62195 3.97 7.44209 3.97 6.46876C3.97 4.57505 5.51062 3.03443 7.40428 3.03443C8.29805 3.03443 9.14451 3.37612 9.78771 3.99663C9.9568 4.15976 10.2263 4.15505 10.3894 3.98585C10.5526 3.81671 10.5478 3.54731 10.3786 3.38418C9.57596 2.60984 8.51962 2.18338 7.40428 2.18338C5.04126 2.18338 3.1189 4.1058 3.1189 6.46882C3.1189 7.62519 3.57038 8.95899 4.3265 10.0367C5.18867 11.2655 6.28172 11.9423 7.40428 11.9423Z" fill="black"/>
<path d="M3.4631 19.2999C2.51252 18.8901 1.63554 18.3369 0.85366 17.6542C0.886683 16.4563 1.24375 15.2978 1.8915 14.2927C2.50208 13.3453 3.34184 12.5738 4.33191 12.0477C5.25331 12.8797 6.30965 13.3174 7.40378 13.3174C8.06123 13.3174 8.70705 13.1593 9.32325 12.8477C9.53296 12.7416 9.61699 12.4857 9.51095 12.2759C9.4049 12.0661 9.14889 11.9821 8.93912 12.0882C8.44309 12.339 7.92653 12.4662 7.40378 12.4662C6.44991 12.4662 5.51784 12.0394 4.70838 11.2319C4.58094 11.1048 4.38734 11.0716 4.22489 11.149C2.97921 11.742 1.92498 12.6696 1.17606 13.8317C0.406659 15.0255 0 16.4106 0 17.8371V17.8429C0 17.963 0.050726 18.0775 0.139638 18.1582C1.02643 18.9624 2.03125 19.6095 3.12612 20.0815C3.18104 20.1052 3.23818 20.1164 3.29441 20.1164C3.45918 20.1164 3.61601 20.0201 3.68541 19.8592C3.7784 19.6434 3.67888 19.393 3.4631 19.2999Z" fill="black"/>
<path d="M3.96353 19.9161C3.81197 20.2816 4.22068 20.6441 4.56594 20.4487C4.74967 20.3446 4.83166 20.1118 4.74904 19.9162C4.61247 19.5675 4.10345 19.5785 3.96353 19.9161Z" fill="black"/>
<path d="M4.74898 19.9162C4.75977 19.9417 4.73877 19.8901 4.74898 19.9162V19.9162Z" fill="black"/>
<path d="M17.2119 3.9967C17.8551 3.37618 18.7015 3.03449 19.5953 3.03449C21.489 3.03449 23.0296 4.57511 23.0296 6.46882C23.0296 7.44215 22.6261 8.62195 21.9763 9.5479C21.2882 10.5287 20.4203 11.0912 19.5953 11.0912C19.2779 11.0912 18.9564 11.0115 18.6397 10.8541C18.4291 10.7494 18.1737 10.8353 18.0692 11.0458C17.9646 11.2562 18.0504 11.5116 18.2609 11.6163C18.6964 11.8327 19.1453 11.9424 19.5953 11.9424C20.7178 11.9424 21.8109 11.2657 22.673 10.0368C23.4292 8.95905 23.8806 7.62525 23.8806 6.46888C23.8806 4.10587 21.9582 2.18344 19.5953 2.18344C18.4799 2.18344 17.4236 2.6099 16.6209 3.38424C16.4518 3.54737 16.447 3.81683 16.6101 3.98592C16.7732 4.15506 17.0427 4.15988 17.2119 3.9967Z" fill="black"/>
</svg>
