<?xml version="1.0" encoding="UTF-8" standalone="no"?>
<svg
   xmlns:dc="http://purl.org/dc/elements/1.1/"
   xmlns:cc="http://creativecommons.org/ns#"
   xmlns:rdf="http://www.w3.org/1999/02/22-rdf-syntax-ns#"
   xmlns:svg="http://www.w3.org/2000/svg"
   xmlns="http://www.w3.org/2000/svg"
   viewBox="0 0 30.666668 20.444498"
   height="20.444498"
   width="30.666668"
   xml:space="preserve"
   id="svg2"
   version="1.1"><metadata
     id="metadata8"><rdf:RDF><cc:Work
         rdf:about=""><dc:format>image/svg+xml</dc:format><dc:type
           rdf:resource="http://purl.org/dc/dcmitype/StillImage" /></cc:Work></rdf:RDF></metadata><defs
     id="defs6" /><g
     transform="matrix(1.3333333,0,0,-1.3333333,0,20.444499)"
     id="g10"><g
       id="g12"><path
         id="path14"
         style="fill:#000000;fill-opacity:1;fill-rule:nonzero;stroke:none"
         d="M 21.820486,15.333374 H 1.179514 C 0.530752,15.333374 0,14.802622 0,14.153905 V 1.179523 C 0,0.530851 0.530752,1e-5 1.179514,1e-5 H 21.82053 c 0.648672,0 1.179514,0.530752 1.179514,1.179513 v 12.974382 c -4.6e-5,0.648717 -0.530796,1.179469 -1.179558,1.179469 z M 21.377872,14.448817 12.1785,7.548727 C 12.013098,7.422856 11.759199,7.344108 11.499955,7.345276 c -0.2592,-0.00117 -0.513053,0.07758 -0.6785,0.203451 l -9.199371,6.90009 z M 16.463867,7.093445 21.4767,0.901097 c 0.005,-0.006199 0.01118,-0.010915 0.01653,-0.016531 H 1.506769 c 0.0053,0.005884 0.0115,0.010332 0.016531,0.016531 L 6.536133,7.093445 C 6.689721,7.283329 6.660611,7.561709 6.470367,7.715657 6.280482,7.869245 6.002101,7.840135 5.848469,7.650206 L 0.884602,1.518324 v 12.377595 l 9.406371,-7.054801 c 0.353579,-0.263332 0.783751,-0.379231 1.208937,-0.380399 0.424602,8.98e-4 0.855133,0.116798 1.208938,0.380399 l 9.406369,7.054801 V 1.518414 l -4.96373,6.131792 C 16.997854,7.84009 16.719204,7.869289 16.529589,7.715657 16.33939,7.562069 16.31019,7.283329 16.463867,7.093445 Z" /></g></g></svg>