<?xml version="1.0" encoding="UTF-8" standalone="no"?>
<svg
   xmlns:dc="http://purl.org/dc/elements/1.1/"
   xmlns:cc="http://creativecommons.org/ns#"
   xmlns:rdf="http://www.w3.org/1999/02/22-rdf-syntax-ns#"
   xmlns:svg="http://www.w3.org/2000/svg"
   xmlns="http://www.w3.org/2000/svg"
   viewBox="0 0 34.666668 34.666668"
   height="34.666668"
   width="34.666668"
   xml:space="preserve"
   id="svg2"
   version="1.1"><metadata
     id="metadata8"><rdf:RDF><cc:Work
         rdf:about=""><dc:format>image/svg+xml</dc:format><dc:type
           rdf:resource="http://purl.org/dc/dcmitype/StillImage" /></cc:Work></rdf:RDF></metadata><defs
     id="defs6" /><g
     transform="matrix(1.3333333,0,0,-1.3333333,0,34.666667)"
     id="g10"><g
       transform="translate(0.610718)"
       id="g12"><path
         id="path14"
         style="fill:#000000;fill-opacity:1;fill-rule:nonzero;stroke:none"
         d="m 24.270693,17.710724 h -3.24289 v 6.534124 C 21.027752,25.212637 20.240389,26 19.2726,26 H 1.60418 C 0.719621,26 0,25.280378 0,24.395821 V 1.604179 C 0,0.719622 0.719621,0 1.60418,0 h 20.79111 c 1.314118,0 2.383215,1.069098 2.383215,2.383215 v 14.819696 c 0,0.280413 -0.227398,0.507813 -0.507812,0.507813 z M 1.60418,1.015574 C 1.279637,1.015625 1.015625,1.279636 1.015625,1.604179 v 22.791642 c 0,0.324543 0.264012,0.588554 0.588555,0.588554 H 19.2726 c 0.407774,0 0.739527,-0.331755 0.739527,-0.739527 V 2.383163 c 0,-0.50842 0.160063,-0.98023 0.432403,-1.367589 z m 20.79111,5.1e-5 c -0.754051,0 -1.367538,0.613489 -1.367538,1.36759 v 14.311884 h 2.735077 V 2.383215 h 5.1e-5 c 0,-0.754101 -0.613489,-1.36759 -1.36759,-1.36759 z" /></g><g
       transform="translate(3.911011,15.096161)"
       id="g16"><path
         id="path18"
         style="fill:#000000;fill-opacity:1;fill-rule:nonzero;stroke:none"
         d="M 13.629789,8.18396 H 0.507812 C 0.227348,8.18396 0,7.956562 0,7.676147 V 0.507816 C 0,0.227402 0.227348,4e-6 0.507812,4e-6 h 13.121977 c 0.280415,0 0.507813,0.227398 0.507813,0.507812 v 7.168331 c 0,0.280465 -0.227398,0.507813 -0.507813,0.507813 z M 5.918758,1.015629 H 2.841973 L 5.821867,4.10643 7.160105,2.718375 Z m 1.256836,0 2.158203,2.960445 2.158153,-2.960445 z m 5.946383,0 h -0.37314 L 9.744212,5.137238 c -0.095621,0.131117 -0.248117,0.20866 -0.410363,0.20866 -0.162246,0 -0.314744,-0.077543 -0.410364,-0.20866 L 7.76755,3.551644 6.187441,5.190557 C 6.091718,5.289835 5.959738,5.345949 5.821867,5.345949 5.683996,5.345949 5.552016,5.289886 5.456293,5.190557 L 1.431219,1.015629 H 1.015625 v 6.152706 h 12.106352 z" /></g><g
       transform="translate(3.911011,10.733429)"
       id="g20"><path
         id="path22"
         style="fill:#000000;fill-opacity:1;fill-rule:nonzero;stroke:none"
         d="M 13.629789,3.036621 H 0.507812 C 0.227348,3.036621 0,2.809223 0,2.528809 V 0.507815 C 0,0.227401 0.227348,3e-6 0.507812,3e-6 h 13.121977 c 0.280415,0 0.507813,0.227398 0.507813,0.507812 v 2.020994 c 0,0.280414 -0.227398,0.507812 -0.507813,0.507812 z M 13.121977,1.015628 H 1.015625 v 1.005368 h 12.106352 z" /></g><g
       transform="translate(16.73999,8.235443)"
       id="g24"><path
         id="path26"
         style="fill:#000000;fill-opacity:1;fill-rule:nonzero;stroke:none"
         d="M 1.00547,0.610612 C 0.998817,0.643112 0.989219,0.675053 0.976524,0.705573 0.963829,0.735991 0.948037,0.765444 0.929806,0.793374 0.911525,0.820796 0.890196,0.846744 0.866836,0.870104 0.843477,0.893971 0.817071,0.914791 0.789649,0.93358 0.76172,0.951811 0.732215,0.967604 0.701797,0.9803 0.671379,0.992995 0.639387,1.002593 0.606837,1.009194 0.541329,1.022448 0.473789,1.022448 0.408282,1.009194 0.376289,1.002593 0.344298,0.992995 0.313321,0.9803 0.282852,0.967604 0.253399,0.951811 0.225977,0.93358 0.198047,0.914791 0.17215,0.893971 0.14879,0.870104 0.124872,0.846744 0.104103,0.820796 0.085314,0.793374 0.067032,0.765495 0.05129,0.736042 0.038594,0.705573 0.025899,0.675104 0.01625,0.643112 0.009649,0.610612 0.003098,0.577604 0,0.544597 0,0.511081 0,0.478074 0.003047,0.445065 0.009649,0.412057 0.01625,0.379557 0.025899,0.347616 0.038594,0.317097 0.05129,0.286679 0.067032,0.257226 0.085314,0.229296 0.104103,0.201823 0.124872,0.175417 0.14879,0.152058 0.17215,0.128698 0.198047,0.10737 0.225977,0.089139 0.253399,0.070858 0.282852,0.055066 0.313321,0.04237 0.344298,0.029675 0.376289,0.020077 0.408282,0.013476 0.441289,0.006874 0.474855,0.003319 0.507812,0.003319 c 0.033059,0 0.066575,0.003606 0.099025,0.010157 0.03255,0.006601 0.064542,0.016199 0.09496,0.028894 0.030418,0.012696 0.059872,0.028488 0.087852,0.046769 0.027473,0.018231 0.053828,0.039559 0.077187,0.062919 0.02336,0.023359 0.044689,0.049816 0.06297,0.077238 0.018231,0.027879 0.034023,0.057332 0.046718,0.087801 0.012695,0.030469 0.022293,0.06246 0.028946,0.09496 0.0066,0.033008 0.010105,0.066017 0.010105,0.099024 0,0.033516 -0.0035,0.066523 -0.010105,0.099531 z" /></g><g
       transform="translate(3.949951,8.238953)"
       id="g28"><path
         id="path30"
         style="fill:#000000;fill-opacity:1;fill-rule:nonzero;stroke:none"
         d="M 11.414557,1.015625 H 0.507812 C 0.227348,1.015625 0,0.788227 0,0.507812 0,0.227398 0.227348,0 0.507812,0 h 10.906745 c 0.280413,0 0.507812,0.227398 0.507812,0.507812 0,0.280415 -0.227399,0.507813 -0.507812,0.507813 z" /></g><g
       transform="translate(16.73999,3.322571)"
       id="g32"><path
         id="path34"
         style="fill:#000000;fill-opacity:1;fill-rule:nonzero;stroke:none"
         d="M 1.00547,0.630738 C 0.998817,0.663238 0.989219,0.695179 0.976524,0.725648 0.963829,0.756167 0.948037,0.785621 0.929806,0.813043 0.911525,0.840972 0.890196,0.86687 0.866836,0.89023 0.748516,1.00855 0.573321,1.062379 0.408282,1.029371 0.376289,1.02277 0.344298,1.013121 0.313321,1.000425 0.282852,0.98773 0.253399,0.971987 0.225977,0.953706 0.198047,0.934917 0.17215,0.914147 0.14879,0.89023 0.125431,0.86687 0.104103,0.840972 0.085314,0.813043 0.067032,0.785621 0.05129,0.756167 0.038594,0.725648 0.025899,0.69523 0.01625,0.663238 0.009649,0.630738 0.003098,0.597731 0,0.564672 0,0.531208 0,0.4982 0.003047,0.465141 0.009649,0.432184 0.01625,0.399633 0.025899,0.367692 0.038594,0.337223 0.05129,0.306754 0.067032,0.277351 0.085314,0.249371 0.104103,0.221898 0.125431,0.195543 0.14879,0.172184 0.17215,0.148825 0.198047,0.127496 0.225977,0.109214 0.253399,0.090933 0.282852,0.075192 0.313321,0.062497 0.344298,0.049801 0.376289,0.040152 0.408282,0.033551 0.441289,0.026949 0.474855,0.023445 0.507812,0.023445 c 0.033059,0 0.066575,0.003504 0.098973,0.010106 0.032551,0.006601 0.064492,0.01625 0.094961,0.028946 0.030977,0.012695 0.06043,0.028436 0.087852,0.046717 0.02793,0.018282 0.053828,0.039611 0.077187,0.06297 0.094504,0.094961 0.14879,0.225418 0.14879,0.359024 0,0.033464 -0.0035,0.066523 -0.010105,0.09953 z" /></g><g
       transform="translate(3.949951,3.346191)"
       id="g36"><path
         id="path38"
         style="fill:#000000;fill-opacity:1;fill-rule:nonzero;stroke:none"
         d="M 11.414557,1.015625 H 0.507812 C 0.227348,1.015625 0,0.788227 0,0.507812 0,0.227398 0.227348,0 0.507812,0 h 10.906745 c 0.280413,0 0.507812,0.227398 0.507812,0.507812 0,0.280415 -0.227399,0.507813 -0.507812,0.507813 z" /></g><g
       transform="translate(3.949707,5.768829)"
       id="g40"><path
         id="path42"
         style="fill:#000000;fill-opacity:1;fill-rule:nonzero;stroke:none"
         d="M 1.005976,0.630611 C 0.999375,0.663111 0.989726,0.695104 0.977031,0.726081 0.964336,0.75655 0.948594,0.786003 0.930313,0.813425 0.911523,0.841355 0.890703,0.867304 0.867344,0.890663 0.843984,0.914023 0.817578,0.935352 0.790156,0.953582 0.762226,0.971864 0.732774,0.987605 0.702305,1.0003 0.671328,1.012996 0.639844,1.022645 0.607344,1.029246 0.442305,1.062813 0.266602,1.008426 0.148789,0.890663 0.12543,0.867304 0.104102,0.841355 0.08582,0.813425 0.067539,0.786003 0.051797,0.75655 0.039102,0.726081 0.026406,0.695104 0.016758,0.663111 0.010156,0.630611 0.003555,0.598111 0,0.564545 0,0.531588 0,0.49858 0.003555,0.465064 0.010156,0.432564 0.016758,0.400064 0.026406,0.368122 0.039102,0.337603 0.051797,0.306677 0.067539,0.277223 0.08582,0.249801 0.104102,0.221821 0.12543,0.195922 0.148789,0.172563 0.243242,0.078109 0.374258,0.023773 0.507812,0.023773 c 0.134063,0 0.264571,0.054387 0.359024,0.14879 0.094961,0.094453 0.148789,0.22547 0.148789,0.359025 0,0.032957 -0.00305,0.066472 -0.00965,0.099023 z" /></g><g
       transform="translate(5.83313,5.792572)"
       id="g44"><path
         id="path46"
         style="fill:#000000;fill-opacity:1;fill-rule:nonzero;stroke:none"
         d="M 11.414564,1.015625 H 0.507813 C 0.227348,1.015625 0,0.788227 0,0.507813 0,0.2274 0.227348,2e-6 0.507813,2e-6 h 10.9067 c 0.280465,0 0.507864,0.227398 0.507864,0.507811 0,0.280414 -0.227399,0.507812 -0.507813,0.507812 z" /></g></g></svg>