<?xml version="1.0" encoding="UTF-8" standalone="no"?>
<!DOCTYPE svg PUBLIC "-//W3C//DTD SVG 1.1//EN" "http://www.w3.org/Graphics/SVG/1.1/DTD/svg11.dtd">
<svg xmlns="http://www.w3.org/2000/svg" xmlns:xlink="http://www.w3.org/1999/xlink" version="1.1" width="23pt" height="24pt" viewBox="0 0 23 24">
<g enable-background="new">
<g>
<mask id="ma0">
<g>
<g clip-path="url(#cp1)">
<path transform="matrix(1,0,0,-1,0,24)" d="M 0 24 L 23 24 L 23 0 L 0 0 L 0 24 Z "/>
</g>
</g>
"/>
</mask>
<clipPath id="cp1">
<path transform="matrix(1,0,0,-1,0,24)" d="M 0 0 L 23 0 L 23 24 L 0 24 Z "/>
</clipPath>
<g mask="url(#ma0)">
<g>
<clipPath id="cp2">
<path transform="matrix(1,0,0,-1,0,24)" d="M 0 0 L 23 0 L 23 24 L 0 24 Z "/>
</clipPath>
<g clip-path="url(#cp2)">
<path transform="matrix(1,0,0,-1,1.11792,24.358857)" d="M 1.147681 3.558846 L 5.613131 3.558846 C 5.813503 1.741833 7.28772 .370382 9.040514 .370382 C 10.793308 .370382 12.267526 1.741833 12.467898 3.558846 L 16.933348 3.558846 C 17.386763 3.554213 17.798865 3.833017 17.979847 4.266846 C 18.169539 4.70867 18.087735 5.226025 17.772082 5.580845 C 16.701889 6.780161 16.055787 8.324539 15.940514 9.958845 L 15.940514 11.769646 C 18.275656 12.392651 20.043944 14.386176 20.458983 16.863663 C 20.874024 19.341149 19.858725 21.842423 17.864613 23.255122 C 15.8705 24.66782 13.267961 24.729544 11.214397 23.412846 C 10.641441 24.020819 9.857667 24.36189 9.040514 24.358845 C 7.347629 24.356862 5.975749 22.925335 5.973847 21.158846 C 5.973883 21.041773 5.980154 20.924792 5.99263 20.808445 C 3.637287 19.59835 2.144123 17.098343 2.140514 14.358846 L 2.140514 9.958845 C 2.02934 8.322975 1.38238 6.776768 .308181 5.579645 C -.007013 5.225029 -.088514 4.708145 .101181 4.266846 C .282164 3.833017 .694266 3.554213 1.147681 3.558846 Z M 9.040514 1.158846 C 7.70719 1.160576 6.576664 2.182091 6.384397 3.558846 L 11.69663 3.558846 C 11.504364 2.182091 10.373838 1.160576 9.040514 1.158846 Z M 19.773848 17.958846 C 19.770678 14.867421 17.369795 12.362152 14.407181 12.358846 C 13.711761 12.356768 13.022738 12.497437 12.379347 12.772845 C 12.293863 12.809341 12.198691 12.812746 12.111013 12.782445 L 9.28968 11.798844 L 10.144514 14.254846 C 10.188538 14.381175 10.168808 14.522131 10.091997 14.630045 C 9.405349 15.591581 9.036365 16.759716 9.040514 17.958846 C 9.040514 21.05164 11.443253 23.558846 14.407181 23.558846 C 17.371109 23.558846 19.773848 21.05164 19.773848 17.958846 Z M 6.740514 21.158846 C 6.741782 22.48378 7.770784 23.557522 9.040514 23.558846 C 9.60605 23.559845 10.151592 23.340613 10.570397 22.944046 C 10.093536 22.545016 9.676131 22.074276 9.331847 21.547245 C 9.234481 21.551646 9.138264 21.558846 9.040514 21.558846 C 8.256491 21.557284 7.478537 21.415358 6.740514 21.139246 C 6.740514 21.145646 6.740514 21.152047 6.740514 21.158846 Z M .875514 5.038845 C 2.08335 6.380419 2.80226 8.12137 2.907181 9.958845 L 2.907181 14.358846 C 2.912252 17.832043 5.569621 20.667944 8.897147 20.751246 C 7.924669 18.681897 8.099722 16.225728 9.354847 14.329246 L 8.56978 12.074445 C 8.483501 11.829515 8.517126 11.556068 8.65987 11.341803 C 8.802615 11.127537 9.036536 10.999385 9.286614 10.998445 C 9.36915 10.998184 9.451195 11.011689 9.529647 11.038445 L 12.22218 11.977245 C 13.161193 11.599298 14.176374 11.47452 15.173847 11.614446 L 15.173847 9.958845 C 15.279281 8.122442 15.998168 6.382675 17.205513 5.042046 C 17.315052 4.92074 17.343934 4.742598 17.27873 4.590445 C 17.220303 4.446569 17.083426 4.354685 16.933732 4.358845 L 1.147681 4.358845 C .997985 4.354685 .861108 4.446569 .802681 4.590445 C .738434 4.741608 .76712 4.918217 .875514 5.038845 Z "/>
<path transform="matrix(1,0,0,-1,3.258301,19.200013)" d="M .383333 -.000008 L 1.916667 -.000008 C 2.128376 -.000008 2.300001 .179077 2.300001 .39999 C 2.300001 .620903 2.128376 .799988 1.916667 .799988 L .383333 .799988 C .171624 .799988 0 .620903 0 .39999 C 0 .179077 .171624 -.000008 .383333 -.000008 Z "/>
<path transform="matrix(1,0,0,-1,6.325195,19.200013)" d="M 0 .39999 C 0 .179077 .171624 -.000008 .383333 -.000008 L 10.350002 -.000008 C 10.561711 -.000008 10.733335 .179077 10.733335 .39999 C 10.733335 .620903 10.561711 .799988 10.350002 .799988 L .383333 .799988 C .171624 .799988 0 .620903 0 .39999 Z "/>
<path transform="matrix(1,0,0,-1,4.791748,10.425323)" d="M .38334 .025307 C .595049 .025307 .766674 .204393 .766674 .425307 C .764891 1.883897 1.401213 3.263572 2.494742 4.172109 C 2.604519 4.260501 2.659993 4.403864 2.63981 4.547012 C 2.619627 4.690161 2.526932 4.810777 2.397408 4.862431 C 2.267885 4.914084 2.121725 4.888722 2.015191 4.796108 C .739579 3.736303 -.002511 2.126758 .000006 .425307 C .000006 .319221 .040393 .217479 .112282 .142464 C .184171 .06745 .281674 .025307 .38334 .025307 Z "/>
<path transform="matrix(1,0,0,-1,11.30835,7.600006)" d="M 0 1.199995 C 0 .537254 .514872 -.000004 1.149999 -.000004 C 1.785125 -.000004 2.299997 .537254 2.299997 1.199995 C 2.299997 1.862736 1.785125 2.399994 1.149999 2.399994 C .514872 2.399994 0 1.862736 0 1.199995 Z M 1.149999 1.599994 C 1.361708 1.599994 1.533332 1.420908 1.533332 1.199995 C 1.533332 .979081 1.361708 .799995 1.149999 .799995 C .93829 .799995 .766666 .979081 .766666 1.199995 C .766666 1.420908 .93829 1.599994 1.149999 1.599994 Z "/>
<path transform="matrix(1,0,0,-1,14.375244,7.600006)" d="M 1.149999 -.000004 C 1.785125 -.000004 2.299997 .537254 2.299997 1.199995 C 2.299997 1.862736 1.785125 2.399994 1.149999 2.399994 C .514872 2.399994 0 1.862736 0 1.199995 C 0 .537254 .514872 -.000004 1.149999 -.000004 Z M 1.149999 1.599994 C 1.361708 1.599994 1.533332 1.420908 1.533332 1.199995 C 1.533332 .979081 1.361708 .799995 1.149999 .799995 C .93829 .799995 .766666 .979081 .766666 1.199995 C .766666 1.420908 .93829 1.599994 1.149999 1.599994 Z "/>
<path transform="matrix(1,0,0,-1,17.441895,7.600006)" d="M 1.149999 -.000004 C 1.785125 -.000004 2.299997 .537254 2.299997 1.199995 C 2.299997 1.862736 1.785125 2.399994 1.149999 2.399994 C .514872 2.399994 0 1.862736 0 1.199995 C 0 .537254 .514872 -.000004 1.149999 -.000004 Z M 1.149999 1.599994 C 1.361708 1.599994 1.533332 1.420908 1.533332 1.199995 C 1.533332 .979081 1.361708 .799995 1.149999 .799995 C .93829 .799995 .766666 .979081 .766666 1.199995 C .766666 1.420908 .93829 1.599994 1.149999 1.599994 Z "/>
</g>
</g>
</g>
</g>
</g>
</svg>
