<svg width="23" height="24" viewBox="0 0 23 24" fill="none" xmlns="http://www.w3.org/2000/svg">
<g clip-path="url(#clip0_32_610)">
<path d="M2.2656 20.8H6.73105C6.93142 22.617 8.40564 23.9885 10.1584 23.9885C11.9112 23.9885 13.3854 22.617 13.5858 20.8H18.0513C18.5047 20.8046 18.9168 20.5258 19.0978 20.092C19.2875 19.6502 19.2057 19.1328 18.89 18.778C17.8198 17.5787 17.1737 16.0343 17.0584 14.4V12.5892C19.3936 11.9662 21.1619 9.97268 21.5769 7.49519C21.9919 5.01771 20.9766 2.51643 18.9825 1.10373C16.9884 -0.308964 14.3859 -0.370688 12.3323 0.946011C11.7594 0.338038 10.9756 -0.00303381 10.1584 1.06578e-05C8.46555 0.00199461 7.09367 1.43352 7.09177 3.20001C7.0918 3.31708 7.09807 3.43406 7.11055 3.55041C4.75521 4.76051 3.26204 7.26051 3.25843 10V14.4C3.14726 16.0359 2.5003 17.5821 1.4261 18.7792C1.11091 19.1338 1.02941 19.6507 1.2191 20.092C1.40008 20.5258 1.81219 20.8046 2.2656 20.8ZM10.1584 23.2C8.82511 23.1983 7.69458 22.1768 7.50232 20.8H12.8146C12.6223 22.1768 11.4918 23.1983 10.1584 23.2ZM20.8918 6.40001C20.8886 9.49144 18.4877 11.9967 15.5251 12C14.8297 12.0021 14.1407 11.8614 13.4973 11.586C13.4118 11.5495 13.3166 11.5461 13.2289 11.5764L10.4076 12.56L11.2624 10.104C11.3065 9.97768 11.2867 9.83673 11.2099 9.72881C10.5233 8.76727 10.1543 7.59914 10.1584 6.40001C10.1584 3.30722 12.5612 0.800011 15.5251 0.800011C18.489 0.800011 20.8918 3.30722 20.8918 6.40001ZM7.85843 3.20001C7.8597 1.87508 8.8887 0.801334 10.1584 0.800011C10.724 0.799011 11.2695 1.01824 11.6883 1.41481C11.2115 1.81384 10.7941 2.28458 10.4498 2.81161C10.3524 2.80721 10.2562 2.80001 10.1584 2.80001C9.37441 2.80157 8.59646 2.9435 7.85843 3.21961C7.85843 3.21321 7.85843 3.20681 7.85843 3.20001ZM1.99343 19.32C3.20127 17.9784 3.92018 16.2375 4.0251 14.4V10C4.03017 6.52681 6.68754 3.69091 10.0151 3.60761C9.04259 5.67696 9.21764 8.13313 10.4728 10.0296L9.6877 12.2844C9.60142 12.5293 9.63505 12.8028 9.77779 13.0171C9.92054 13.2313 10.1545 13.3595 10.4045 13.3604C10.4871 13.3607 10.5691 13.3472 10.6476 13.3204L13.3401 12.3816C14.2791 12.7596 15.2943 12.8843 16.2918 12.7444V14.4C16.3972 16.2364 17.1161 17.9762 18.3234 19.3168C18.433 19.4381 18.4619 19.6163 18.3967 19.7684C18.3382 19.9123 18.2013 20.0042 18.0517 20H2.2656C2.1159 20.0042 1.97903 19.9123 1.9206 19.7684C1.85635 19.6172 1.88504 19.4406 1.99343 19.32Z" fill="black"/>
<path d="M3.64163 19.2H5.17497C5.38668 19.2 5.5583 19.0209 5.5583 18.8C5.5583 18.5791 5.38668 18.4 5.17497 18.4H3.64163C3.42992 18.4 3.2583 18.5791 3.2583 18.8C3.2583 19.0209 3.42992 19.2 3.64163 19.2Z" fill="black"/>
<path d="M6.3252 18.8C6.3252 19.0209 6.49682 19.2 6.70853 19.2H16.6752C16.8869 19.2 17.0585 19.0209 17.0585 18.8C17.0585 18.5791 16.8869 18.4 16.6752 18.4H6.70853C6.49682 18.4 6.3252 18.5791 6.3252 18.8Z" fill="black"/>
<path d="M5.17509 10.4C5.3868 10.4 5.55842 10.2209 5.55842 10C5.55664 8.54143 6.19296 7.16175 7.28649 6.25322C7.39627 6.16482 7.45174 6.02146 7.43156 5.87831C7.41137 5.73516 7.31868 5.61455 7.18916 5.56289C7.05963 5.51124 6.91347 5.5366 6.80694 5.62922C5.53133 6.68902 4.78924 8.29857 4.79175 10C4.79175 10.1061 4.83214 10.2078 4.90403 10.2829C4.97592 10.3579 5.07342 10.4 5.17509 10.4Z" fill="black"/>
<path d="M11.3083 6.40001C11.3083 7.06275 11.8232 7.60001 12.4583 7.60001C13.0935 7.60001 13.6083 7.06275 13.6083 6.40001C13.6083 5.73727 13.0935 5.20001 12.4583 5.20001C11.8232 5.20001 11.3083 5.73727 11.3083 6.40001ZM12.4583 6.00001C12.6701 6.00001 12.8417 6.1791 12.8417 6.40001C12.8417 6.62093 12.6701 6.80001 12.4583 6.80001C12.2466 6.80001 12.075 6.62093 12.075 6.40001C12.075 6.1791 12.2466 6.00001 12.4583 6.00001Z" fill="black"/>
<path d="M15.5252 7.60001C16.1604 7.60001 16.6752 7.06275 16.6752 6.40001C16.6752 5.73727 16.1604 5.20001 15.5252 5.20001C14.8901 5.20001 14.3752 5.73727 14.3752 6.40001C14.3752 7.06275 14.8901 7.60001 15.5252 7.60001ZM15.5252 6.00001C15.737 6.00001 15.9086 6.1791 15.9086 6.40001C15.9086 6.62093 15.737 6.80001 15.5252 6.80001C15.3135 6.80001 15.1419 6.62093 15.1419 6.40001C15.1419 6.1791 15.3135 6.00001 15.5252 6.00001Z" fill="black"/>
<path d="M18.5919 7.60001C19.227 7.60001 19.7419 7.06275 19.7419 6.40001C19.7419 5.73727 19.227 5.20001 18.5919 5.20001C17.9568 5.20001 17.4419 5.73727 17.4419 6.40001C17.4419 7.06275 17.9568 7.60001 18.5919 7.60001ZM18.5919 6.00001C18.8036 6.00001 18.9752 6.1791 18.9752 6.40001C18.9752 6.62093 18.8036 6.80001 18.5919 6.80001C18.3802 6.80001 18.2086 6.62093 18.2086 6.40001C18.2086 6.1791 18.3802 6.00001 18.5919 6.00001Z" fill="black"/>
</g>
<defs>
<clipPath id="clip0_32_610">
<rect width="23" height="24" fill="white"/>
</clipPath>
</defs>
</svg>
