<?xml version="1.0" encoding="UTF-8" standalone="no"?>
<svg
   xmlns:dc="http://purl.org/dc/elements/1.1/"
   xmlns:cc="http://creativecommons.org/ns#"
   xmlns:rdf="http://www.w3.org/1999/02/22-rdf-syntax-ns#"
   xmlns:svg="http://www.w3.org/2000/svg"
   xmlns="http://www.w3.org/2000/svg"
   viewBox="0 0 30.666668 30.666668"
   height="30.666668"
   width="30.666668"
   xml:space="preserve"
   id="svg2"
   version="1.1"><metadata
     id="metadata8"><rdf:RDF><cc:Work
         rdf:about=""><dc:format>image/svg+xml</dc:format><dc:type
           rdf:resource="http://purl.org/dc/dcmitype/StillImage" /></cc:Work></rdf:RDF></metadata><defs
     id="defs6" /><g
     transform="matrix(1.3333333,0,0,-1.3333333,0,30.666667)"
     id="g10"><g
       transform="translate(0,-0.046753)"
       id="g12"><path
         id="path14"
         style="fill:#7d7d7d;fill-opacity:1;fill-rule:nonzero;stroke:none"
         d="m 22.859617,1.54225 -6.681331,6.681333 c 1.267248,1.564497 2.030067,3.553462 2.030067,5.718971 0,5.020028 -4.084169,9.104199 -9.104199,9.104199 C 4.084125,23.046753 0,18.962582 0,13.942554 c 0,-5.02003 4.08417,-9.1042 9.104199,-9.1042 2.165509,0 4.154474,0.762865 5.718971,2.030069 L 21.504503,0.18709 c 0.187189,-0.1871 0.490502,-0.1871 0.677693,0 l 0.677467,0.677513 c 0.187099,0.187145 0.187099,0.490547 -4.6e-5,0.677647 z M 9.104199,6.755041 c -3.963419,0 -7.187514,3.224094 -7.187514,7.187513 0,3.963419 3.224095,7.187514 7.187514,7.187514 3.963419,0 7.187513,-3.224095 7.187513,-7.187514 0,-3.963419 -3.224094,-7.187513 -7.187513,-7.187513 z" /></g></g></svg>